<?xml version="1.0" encoding="UTF-8" standalone="no"?>
<!-- Created with Inkscape (http://www.inkscape.org/) -->

<svg
   width="1028"
   height="1028"
   viewBox="0 0 271.99167 271.99167"
   version="1.1"
   id="svg1"
   xml:space="preserve"
   sodipodi:docname="logo_staymaker.svg"
   inkscape:version="1.4.2 (ebf0e940, 2025-05-08)"
   inkscape:export-filename="logo_staymaker.png"
   inkscape:export-xdpi="96"
   inkscape:export-ydpi="96"
   xmlns:inkscape="http://www.inkscape.org/namespaces/inkscape"
   xmlns:sodipodi="http://sodipodi.sourceforge.net/DTD/sodipodi-0.dtd"
   xmlns:xlink="http://www.w3.org/1999/xlink"
   xmlns="http://www.w3.org/2000/svg"
   xmlns:svg="http://www.w3.org/2000/svg"><sodipodi:namedview
     id="namedview1"
     pagecolor="#505050"
     bordercolor="#eeeeee"
     borderopacity="1"
     inkscape:showpageshadow="0"
     inkscape:pageopacity="0"
     inkscape:pagecheckerboard="0"
     inkscape:deskcolor="#505050"
     inkscape:zoom="0.44188131"
     inkscape:cx="485.42447"
     inkscape:cy="525.02786"
     inkscape:window-width="1424"
     inkscape:window-height="793"
     inkscape:window-x="1786"
     inkscape:window-y="98"
     inkscape:window-maximized="0"
     inkscape:current-layer="svg1" /><defs
     id="defs1"><linearGradient
       id="linearGradient11"><stop
         style="stop-color:#778074;stop-opacity:1;"
         offset="0"
         id="stop11" /><stop
         style="stop-color:#575d53;stop-opacity:1;"
         offset="1"
         id="stop12" /></linearGradient><linearGradient
       xlink:href="#linearGradient11"
       id="linearGradient12"
       x1="17.055847"
       y1="25.262217"
       x2="35.524048"
       y2="25.262217"
       gradientUnits="userSpaceOnUse" /><linearGradient
       xlink:href="#linearGradient11"
       id="linearGradient13"
       gradientUnits="userSpaceOnUse"
       x1="17.055847"
       y1="25.262217"
       x2="35.524048"
       y2="25.262217" /></defs><rect
     style="opacity:0.433054;fill:#566755;fill-opacity:0.659193;stroke-width:0.848384;stroke-linejoin:round;stroke-miterlimit:82.8;paint-order:markers fill stroke"
     id="rect1-3-8"
     width="160.56551"
     height="52.400215"
     x="55.705471"
     y="109.79572"
     ry="26.200108" /><rect
     style="fill:#3d483c;fill-opacity:1;stroke:none;stroke-width:0.920889;stroke-linejoin:round;stroke-miterlimit:82.8;paint-order:markers fill stroke"
     id="rect1-3"
     width="181.92291"
     height="54.491627"
     x="-117.93344"
     y="203.3389"
     ry="27.245813"
     transform="rotate(-45)" /><path
     id="rect1-3-85"
     style="opacity:0.629707;fill:#374236;fill-opacity:1;stroke:none;stroke-width:0.920889;stroke-linejoin:round;stroke-miterlimit:82.8;paint-order:markers fill stroke"
     d="m 98.92235,254.44424 c 6.96455,0 13.92907,-2.66797 19.26567,-8.00457 l 90.10726,-90.10776 c 10.67319,-10.6732 10.67319,-27.85815 -1e-5,-38.53135 3.61226,9.67746 1.51533,20.96693 -6.29077,28.77302 l -90.10725,90.10725 c -10.6732,10.6732 -27.858136,10.6732 -38.531335,0 1.326741,3.55442 3.423675,6.89175 6.290763,9.75884 5.336593,5.3366 12.30112,8.00457 19.265672,8.00457 z" /><rect
     style="fill:#283225;fill-opacity:1;stroke:none;stroke-width:0.920889;stroke-linejoin:round;stroke-miterlimit:82.8;paint-order:markers fill stroke"
     id="rect1"
     width="181.92291"
     height="54.491627"
     x="-63.989475"
     y="126.82378"
     ry="27.245813"
     transform="rotate(-45)" /><path
     id="rect1-3-85-2"
     style="opacity:0.575314;fill:#292f29;fill-opacity:1;stroke:none;stroke-width:0.920889;stroke-linejoin:round;stroke-miterlimit:82.8;paint-order:markers fill stroke"
     d="m 82.962119,162.19572 c 6.964553,0 13.929073,-2.66797 19.265671,-8.00457 l 90.10726,-90.107763 c 10.67319,-10.673198 10.67319,-27.858149 -1e-5,-38.531348 3.61226,9.677467 1.51533,20.966926 -6.29077,28.773018 L 95.937022,144.43231 c -10.673198,10.6732 -27.858139,10.6732 -38.531338,0 1.326741,3.55442 3.423675,6.89175 6.290763,9.75884 5.336593,5.3366 12.301119,8.00457 19.265672,8.00457 z" /><g
     id="g11"
     transform="matrix(4.5535835,-4.5535835,4.5535835,4.5535835,-128.22176,88.225237)"
     style="opacity:0.51046"><rect
       style="opacity:1;fill:url(#linearGradient12);fill-opacity:1;stroke:none;stroke-width:0.103104;stroke-linejoin:round;stroke-miterlimit:82.8;stroke-opacity:1;paint-order:markers fill stroke"
       id="rect11"
       width="18.468201"
       height="0.65957862"
       x="17.055847"
       y="24.932426"
       ry="0.32978931" /><rect
       style="fill:#575d53;fill-opacity:1;stroke:none;stroke-width:0.0389843;stroke-linejoin:round;stroke-miterlimit:82.8;stroke-opacity:1;paint-order:markers fill stroke"
       id="rect11-0"
       width="2.6402917"
       height="0.65957862"
       x="36.512661"
       y="24.932426"
       ry="0.32978931" /></g><g
     id="g11-0"
     transform="matrix(4.5535835,-4.5535835,4.5535835,4.5535835,-112.32886,179.95151)"
     style="opacity:0.313808"><rect
       style="opacity:1;fill:url(#linearGradient13);fill-opacity:1;stroke:none;stroke-width:0.103104;stroke-linejoin:round;stroke-miterlimit:82.8;stroke-opacity:1;paint-order:markers fill stroke"
       id="rect11-09"
       width="18.468201"
       height="0.65957862"
       x="17.055847"
       y="24.932426"
       ry="0.32978931" /><rect
       style="fill:#575d53;fill-opacity:1;stroke:none;stroke-width:0.0389843;stroke-linejoin:round;stroke-miterlimit:82.8;stroke-opacity:1;paint-order:markers fill stroke"
       id="rect11-0-3"
       width="2.6402917"
       height="0.65957862"
       x="36.512661"
       y="24.932426"
       ry="0.32978931" /></g></svg>
